<svg width="145" height="30" viewBox="0 0 145 30" fill="none" xmlns="http://www.w3.org/2000/svg">
<path d="M53.6059 13.9832H62.9261V11.0303H57.1527V8.55334H62.2661V5.80442H57.1527V3.32747H62.9261V0.384283H53.6059V13.9832ZM74.4927 8.12594C73.1428 10.2435 71.8325 11.1274 70.1478 11.1274C67.9606 11.1274 66.6897 9.61211 66.6897 6.97975C66.6897 4.48338 67.8621 3.24005 69.6651 3.24005C70.8571 3.24005 71.8424 3.76458 72.1478 5.51301H75.6946C75.3103 2.18128 73.1528 0.112305 69.7044 0.112305C65.7044 0.112305 63.0739 2.90007 63.0739 7.17402C63.0739 11.4771 65.7044 14.2552 70.0296 14.2552C72.8572 14.2552 74.7783 13.0895 76.0492 11.516H80.8867V13.9832H84.4139V0.384283H79.4089L74.4927 8.12594ZM80.8867 8.78646H77.7635L80.8867 3.78401V8.78646ZM46.0394 0.384283H40.8572V13.9832H46.0394C50.1479 13.9832 52.798 11.312 52.798 7.18373C52.798 3.0555 50.1479 0.384283 46.0394 0.384283ZM45.9902 11.0303H44.404V3.32747H45.9902C48.0394 3.32747 49.1921 4.75536 49.1921 7.18373C49.1921 9.60239 48.0394 11.0303 45.9902 11.0303ZM125.123 0.112305C120.956 0.112305 118.158 2.90008 118.158 7.18373C118.158 11.4674 120.956 14.2552 125.123 14.2552C129.301 14.2552 132.089 11.4674 132.089 7.18373C132.089 2.90009 129.301 0.112305 125.123 0.112305ZM125.123 11.1274C123.074 11.1274 121.783 9.77724 121.783 7.18373C121.783 4.59023 123.074 3.24005 125.123 3.24005C127.182 3.24005 128.463 4.59023 128.463 7.18373C128.463 9.77724 127.182 11.1274 125.123 11.1274ZM85.3006 3.32747H88.7784V13.9832H92.3252V3.32747H95.8031V0.384283H85.3006V3.32747ZM141.143 0.384283V7.87339L136.571 0.384283H132.897V13.9832H136.325V6.18324L141.084 13.9832H144.571V0.384283H141.143ZM113.133 0.384283H109.586V13.9832H118.483V11.04H113.133V0.384283ZM105.015 5.57129H100.237V0.384283H96.6898V13.9832H100.237V8.50477H105.015V13.9832H108.562V0.384283H105.015V5.57129Z" fill="white"/>
<path d="M76.458 29.722C76.1713 29.722 75.951 29.4684 75.9912 29.1846L77.2514 20.274C77.2843 20.0415 77.4833 19.8686 77.7182 19.8686H83.2175C83.5025 19.8686 83.7223 20.1196 83.6848 20.4021L83.5989 21.0499C83.5678 21.2842 83.3679 21.4592 83.1315 21.4592H79.4627C79.2283 21.4592 79.0294 21.6316 78.9961 21.8636L78.7655 23.4686C78.7247 23.7527 78.9451 24.0071 79.2322 24.0071H81.7376C82.0232 24.0071 82.2433 24.2591 82.2047 24.5422L82.1221 25.1477C82.0903 25.3813 81.8907 25.5554 81.655 25.5554H78.8736C78.6382 25.5554 78.4389 25.7291 78.4066 25.9622L77.9422 29.3153C77.9099 29.5484 77.7106 29.722 77.4752 29.722H76.458Z" fill="white"/>
<path d="M83.8401 29.722C83.5535 29.722 83.3332 29.4684 83.3733 29.1846L84.6335 20.274C84.6664 20.0415 84.8654 19.8686 85.1003 19.8686H86.1047C86.3913 19.8686 86.6116 20.1223 86.5714 20.4061L85.3112 29.3166C85.2784 29.5492 85.0793 29.722 84.8445 29.722H83.8401Z" fill="white"/>
<path d="M87.1533 29.722C86.8667 29.722 86.6464 29.4684 86.6865 29.1846L87.9467 20.274C87.9796 20.0415 88.1787 19.8686 88.4135 19.8686H92.2833C93.0809 19.8686 93.7237 20.0094 94.2117 20.2909C94.6997 20.5724 95.0422 20.9525 95.2393 21.4311C95.4457 21.9003 95.502 22.4352 95.4082 23.0358C95.3425 23.4768 95.1877 23.8851 94.9437 24.2604C94.812 24.4579 94.6613 24.6403 94.4914 24.8077C94.2693 25.0266 94.2575 25.401 94.4333 25.6585C94.541 25.8163 94.6267 25.9884 94.6903 26.1748C94.8311 26.5596 94.878 26.9959 94.8311 27.4839L94.6835 29.289C94.6635 29.5337 94.4591 29.722 94.2136 29.722H93.2261C92.9525 29.722 92.7363 29.4898 92.7559 29.2168L92.8885 27.3713C92.9073 27.0898 92.8932 26.8458 92.8463 26.6393C92.7994 26.4329 92.7055 26.2733 92.5648 26.1607C92.424 26.0387 92.2129 25.9777 91.9313 25.9777H89.525C89.2904 25.9777 89.0914 26.1502 89.0583 26.3825L88.639 29.3173C88.6058 29.5495 88.4069 29.722 88.1723 29.722H87.1533ZM89.4049 23.8625C89.3639 24.1467 89.5844 24.4012 89.8715 24.4012H91.5231C92.105 24.4012 92.5507 24.2604 92.8604 23.9789C93.1794 23.688 93.3718 23.3032 93.4375 22.8246C93.5032 22.393 93.4281 22.0598 93.2123 21.8252C92.9965 21.5906 92.5976 21.4733 92.0158 21.4733H90.1578C89.9235 21.4733 89.7247 21.6455 89.6912 21.8775L89.4049 23.8625Z" fill="white"/>
<path d="M99.5276 29.8909C99.0772 29.8909 98.6267 29.8253 98.1763 29.6939C97.7352 29.5531 97.3364 29.342 96.9798 29.0604C96.6232 28.7695 96.3417 28.3989 96.1352 27.9484C95.9856 27.6064 95.9036 27.2102 95.8892 26.7599C95.8812 26.5105 96.0908 26.3156 96.3404 26.3156H97.165C97.4218 26.3156 97.6243 26.523 97.6737 26.7749C97.7265 27.0442 97.8236 27.2712 97.9651 27.4557C98.181 27.7279 98.439 27.9203 98.7393 28.0329C99.049 28.1455 99.3399 28.2018 99.6121 28.2018C99.9593 28.2018 100.269 28.1549 100.541 28.061C100.823 27.9578 101.048 27.8077 101.217 27.6106C101.386 27.4041 101.47 27.1508 101.47 26.8505C101.47 26.325 101.118 25.959 100.414 25.7525L98.9505 25.3161C98.2654 25.1097 97.7399 24.8141 97.3739 24.4293C97.0079 24.0352 96.825 23.5238 96.825 22.895C96.825 22.2194 96.9798 21.6469 97.2895 21.1777C97.6085 20.6991 98.0355 20.3331 98.5704 20.0798C99.1053 19.8264 99.6918 19.6997 100.33 19.6997C100.996 19.6997 101.592 19.817 102.118 20.0516C102.643 20.2768 103.047 20.6287 103.328 21.1073C103.56 21.4881 103.687 21.9579 103.711 22.5167C103.721 22.7678 103.511 22.9654 103.26 22.9654H102.42C102.16 22.9654 101.958 22.7516 101.904 22.4969C101.861 22.2949 101.787 22.1273 101.681 21.9941C101.512 21.7595 101.297 21.6 101.034 21.5155C100.78 21.4217 100.522 21.3748 100.26 21.3748C100.025 21.3748 99.7857 21.4123 99.5417 21.4874C99.2977 21.5531 99.0865 21.6704 98.9082 21.8393C98.7299 21.9988 98.622 22.2194 98.5845 22.5009C98.5094 23.0546 98.8895 23.4534 99.7247 23.6974L101.09 24.0915C101.841 24.3073 102.394 24.6217 102.751 25.0346C103.108 25.4475 103.286 25.9637 103.286 26.583C103.286 27.0991 103.178 27.5637 102.962 27.9766C102.756 28.3801 102.474 28.7273 102.118 29.0182C101.77 29.2997 101.372 29.5156 100.921 29.6657C100.471 29.8159 100.006 29.8909 99.5276 29.8909Z" fill="white"/>
<path d="M106.593 29.722C106.307 29.722 106.087 29.4684 106.127 29.1846L107.143 21.9967C107.183 21.7129 106.963 21.4592 106.676 21.4592H104.89C104.604 21.4592 104.383 21.2055 104.424 20.9217L104.515 20.274C104.548 20.0414 104.747 19.8686 104.982 19.8686H111.72C112.005 19.8686 112.225 20.1196 112.187 20.4021L112.101 21.0499C112.07 21.2842 111.871 21.4592 111.634 21.4592H109.599C109.364 21.4592 109.165 21.6321 109.132 21.8647L108.079 29.3166C108.046 29.5492 107.847 29.722 107.612 29.722H106.593Z" fill="white"/>
<path d="M116.708 29.722C116.421 29.722 116.201 29.4684 116.241 29.1846L117.501 20.274C117.534 20.0415 117.733 19.8686 117.968 19.8686H121.838C122.636 19.8686 123.278 20.0094 123.766 20.2909C124.254 20.5724 124.597 20.9525 124.794 21.4311C125 21.9003 125.057 22.4352 124.963 23.0358C124.897 23.4768 124.742 23.8851 124.498 24.2604C124.367 24.4579 124.216 24.6403 124.046 24.8077C123.824 25.0266 123.812 25.401 123.988 25.6585C124.096 25.8163 124.181 25.9884 124.245 26.1748C124.386 26.5596 124.433 26.9959 124.386 27.4839L124.238 29.289C124.218 29.5337 124.014 29.722 123.768 29.722H122.781C122.507 29.722 122.291 29.4898 122.311 29.2168L122.443 27.3713C122.462 27.0898 122.448 26.8458 122.401 26.6393C122.354 26.4329 122.26 26.2733 122.12 26.1607C121.979 26.0387 121.768 25.9777 121.486 25.9777H119.08C118.845 25.9777 118.646 26.1502 118.613 26.3825L118.194 29.3173C118.161 29.5495 117.962 29.722 117.727 29.722H116.708ZM118.96 23.8625C118.919 24.1467 119.139 24.4012 119.426 24.4012H121.078C121.66 24.4012 122.105 24.2604 122.415 23.9789C122.734 23.688 122.927 23.3032 122.992 22.8246C123.058 22.393 122.983 22.0598 122.767 21.8252C122.551 21.5906 122.152 21.4733 121.571 21.4733H119.713C119.478 21.4733 119.279 21.6455 119.246 21.8775L118.96 23.8625Z" fill="white"/>
<path d="M128.97 29.8909C128.228 29.8909 127.571 29.7408 126.999 29.4405C126.436 29.1402 126.018 28.6945 125.746 28.1033C125.474 27.5027 125.399 26.7519 125.521 25.851L126.308 20.2741C126.341 20.0416 126.54 19.8686 126.775 19.8686H127.794C128.081 19.8686 128.301 20.1218 128.261 20.4054L127.449 26.203C127.393 26.5783 127.417 26.9068 127.52 27.1883C127.623 27.4698 127.806 27.6904 128.069 27.8499C128.332 28 128.674 28.0751 129.096 28.0751C129.744 28.0751 130.279 27.8874 130.701 27.5121C131.133 27.1273 131.396 26.5783 131.489 25.8651L132.277 20.2743C132.31 20.0416 132.509 19.8686 132.744 19.8686H133.762C134.049 19.8686 134.269 20.1222 134.229 20.406L133.446 25.9496C133.324 26.8505 133.042 27.5918 132.601 28.1736C132.17 28.7555 131.635 29.1871 130.997 29.4687C130.368 29.7502 129.692 29.8909 128.97 29.8909Z" fill="white"/>
<path d="M134.605 29.722C134.319 29.722 134.098 29.4684 134.138 29.1846L135.399 20.274C135.431 20.0415 135.631 19.8686 135.865 19.8686H137.114C137.289 19.8686 137.449 19.9656 137.531 20.1205L140.24 25.2673C140.453 25.6718 141.059 25.567 141.124 25.1146L141.817 20.2732C141.85 20.0411 142.049 19.8686 142.283 19.8686H143.317C143.603 19.8686 143.824 20.1223 143.783 20.4061L142.523 29.3166C142.49 29.5492 142.291 29.722 142.056 29.722H140.793C140.618 29.722 140.458 29.6257 140.376 29.4716L137.654 24.3405C137.44 23.9376 136.835 24.0429 136.771 24.4944L136.077 29.3177C136.044 29.5497 135.845 29.722 135.61 29.722H134.605Z" fill="white"/>
<rect x="52.1718" y="24.0647" width="22.6286" height="1.88571" rx="0.942857" fill="white"/>
<rect x="63.4856" y="20.2935" width="12.2571" height="1.88571" rx="0.942857" fill="white"/>
<rect x="41.8" y="27.8362" width="32.0571" height="1.88571" rx="0.942857" fill="white"/>
<path d="M26.3725 0C14.6195 0 0 12.0747 0 22.082C0 27.2504 3.99811 29.8571 9.27863 29.8571C13.1561 29.8571 17.8482 28.449 22.3743 25.7374V5.76769C21.1674 7.82008 15.4946 16.0896 10.9382 20.494C8.61481 22.7411 6.77417 23.7149 5.19001 23.7149C3.40972 23.7149 2.56484 22.5164 2.56484 20.7338C2.56484 12.644 16.2792 2.1273 25.3616 2.1273C29.1033 2.1273 31.5172 3.77521 31.5172 6.98115C31.5172 9.91742 29.5106 13.6027 26.0858 17.0034V23.1906C32.0603 18.5015 35.6359 12.5241 35.6359 7.70023C35.6359 2.62167 31.653 0 26.3725 0Z" fill="white"/>
</svg>
