<svg width="145" height="30" viewBox="0 0 145 30" fill="none" xmlns="http://www.w3.org/2000/svg">
<path d="M53.6059 13.9832H62.9261V11.0303H57.1527V8.55334H62.266V5.80442H57.1527V3.32747H62.9261V0.384283H53.6059V13.9832ZM74.4926 8.12594C73.1428 10.2435 71.8324 11.1274 70.1477 11.1274C67.9605 11.1274 66.6896 9.61211 66.6896 6.97975C66.6896 4.48338 67.862 3.24005 69.665 3.24005C70.8571 3.24005 71.8423 3.76458 72.1478 5.51301H75.6946C75.3103 2.18128 73.1527 0.112305 69.7044 0.112305C65.7044 0.112305 63.0738 2.90007 63.0738 7.17402C63.0738 11.4771 65.7044 14.2552 70.0295 14.2552C72.8571 14.2552 74.7783 13.0895 76.0492 11.516H80.8866V13.9832H84.4138V0.384283H79.4089L74.4926 8.12594ZM80.8866 8.78646H77.7635L80.8866 3.78401V8.78646ZM46.0394 0.384283H40.8571V13.9832H46.0394C50.1478 13.9832 52.798 11.312 52.798 7.18373C52.798 3.0555 50.1478 0.384283 46.0394 0.384283ZM45.9901 11.0303H44.4039V3.32747H45.9901C48.0394 3.32747 49.1921 4.75536 49.1921 7.18373C49.1921 9.60239 48.0394 11.0303 45.9901 11.0303ZM125.123 0.112305C120.956 0.112305 118.158 2.90008 118.158 7.18373C118.158 11.4674 120.956 14.2552 125.123 14.2552C129.3 14.2552 132.089 11.4674 132.089 7.18373C132.089 2.90009 129.3 0.112305 125.123 0.112305ZM125.123 11.1274C123.074 11.1274 121.783 9.77724 121.783 7.18373C121.783 4.59023 123.074 3.24005 125.123 3.24005C127.182 3.24005 128.463 4.59023 128.463 7.18373C128.463 9.77724 127.182 11.1274 125.123 11.1274ZM85.3005 3.32747H88.7784V13.9832H92.3252V3.32747H95.803V0.384283H85.3005V3.32747ZM141.143 0.384283V7.87339L136.571 0.384283H132.897V13.9832H136.325V6.18324L141.084 13.9832H144.571V0.384283H141.143ZM113.133 0.384283H109.586V13.9832H118.483V11.04H113.133V0.384283ZM105.015 5.57129H100.236V0.384283H96.6897V13.9832H100.236V8.50477H105.015V13.9832H108.562V0.384283H105.015V5.57129Z" fill="#3643BA"/>
<path d="M76.4578 29.722C76.1712 29.722 75.9509 29.4684 75.991 29.1846L77.2513 20.274C77.2841 20.0415 77.4832 19.8686 77.718 19.8686H83.2174C83.5024 19.8686 83.7222 20.1196 83.6847 20.4021L83.5987 21.0499C83.5676 21.2842 83.3678 21.4592 83.1314 21.4592H79.4626C79.2281 21.4592 79.0293 21.6316 78.996 21.8636L78.7654 23.4686C78.7246 23.7527 78.945 24.0071 79.2321 24.0071H81.7374C82.0231 24.0071 82.2432 24.2591 82.2046 24.5422L82.122 25.1477C82.0901 25.3813 81.8906 25.5554 81.6549 25.5554H78.8735C78.6381 25.5554 78.4388 25.7291 78.4065 25.9622L77.9421 29.3153C77.9098 29.5484 77.7105 29.722 77.4751 29.722H76.4578Z" fill="#3643BA"/>
<path d="M83.84 29.722C83.5533 29.722 83.3331 29.4684 83.3732 29.1846L84.6334 20.274C84.6663 20.0415 84.8653 19.8686 85.1002 19.8686H86.1045C86.3912 19.8686 86.6115 20.1223 86.5713 20.4061L85.3111 29.3166C85.2782 29.5492 85.0792 29.722 84.8443 29.722H83.84Z" fill="#3643BA"/>
<path d="M87.1532 29.722C86.8666 29.722 86.6463 29.4684 86.6864 29.1846L87.9466 20.274C87.9795 20.0415 88.1785 19.8686 88.4134 19.8686H92.2831C93.0808 19.8686 93.7236 20.0094 94.2116 20.2909C94.6996 20.5724 95.0421 20.9525 95.2392 21.4311C95.4456 21.9003 95.5019 22.4352 95.4081 23.0358C95.3424 23.4768 95.1875 23.8851 94.9436 24.2604C94.8119 24.4579 94.6612 24.6403 94.4913 24.8077C94.2692 25.0266 94.2574 25.401 94.4332 25.6585C94.5409 25.8163 94.6265 25.9884 94.6902 26.1748C94.8309 26.5596 94.8779 26.9959 94.8309 27.4839L94.6834 29.289C94.6634 29.5337 94.459 29.722 94.2135 29.722H93.226C92.9523 29.722 92.7362 29.4898 92.7558 29.2168L92.8884 27.3713C92.9072 27.0898 92.8931 26.8458 92.8462 26.6393C92.7993 26.4329 92.7054 26.2733 92.5647 26.1607C92.4239 26.0387 92.2128 25.9777 91.9312 25.9777H89.5248C89.2902 25.9777 89.0913 26.1502 89.0581 26.3825L88.6389 29.3173C88.6057 29.5495 88.4068 29.722 88.1722 29.722H87.1532ZM89.4048 23.8625C89.3638 24.1467 89.5843 24.4012 89.8714 24.4012H91.523C92.1048 24.4012 92.5506 24.2604 92.8603 23.9789C93.1793 23.688 93.3717 23.3032 93.4374 22.8246C93.5031 22.393 93.428 22.0598 93.2122 21.8252C92.9963 21.5906 92.5975 21.4733 92.0157 21.4733H90.1577C89.9233 21.4733 89.7246 21.6455 89.6911 21.8775L89.4048 23.8625Z" fill="#3643BA"/>
<path d="M99.5275 29.8909C99.077 29.8909 98.6266 29.8253 98.1762 29.6939C97.7351 29.5531 97.3363 29.342 96.9797 29.0604C96.6231 28.7695 96.3415 28.3989 96.1351 27.9484C95.9854 27.6064 95.9034 27.2102 95.8891 26.7599C95.8811 26.5105 96.0907 26.3156 96.3403 26.3156H97.1649C97.4217 26.3156 97.6242 26.523 97.6736 26.7749C97.7264 27.0442 97.8235 27.2712 97.965 27.4557C98.1808 27.7279 98.4389 27.9203 98.7392 28.0329C99.0489 28.1455 99.3398 28.2018 99.6119 28.2018C99.9592 28.2018 100.269 28.1549 100.541 28.061C100.822 27.9578 101.048 27.8077 101.217 27.6106C101.386 27.4041 101.47 27.1508 101.47 26.8505C101.47 26.325 101.118 25.959 100.414 25.7525L98.9504 25.3161C98.2653 25.1097 97.7398 24.8141 97.3738 24.4293C97.0078 24.0352 96.8248 23.5238 96.8248 22.895C96.8248 22.2194 96.9797 21.6469 97.2893 21.1777C97.6084 20.6991 98.0354 20.3331 98.5703 20.0798C99.1052 19.8264 99.6917 19.6997 100.33 19.6997C100.996 19.6997 101.592 19.817 102.118 20.0516C102.643 20.2768 103.047 20.6287 103.328 21.1073C103.559 21.4881 103.687 21.9579 103.711 22.5167C103.721 22.7678 103.511 22.9654 103.259 22.9654H102.42C102.16 22.9654 101.958 22.7516 101.904 22.4969C101.861 22.2949 101.787 22.1273 101.681 21.9941C101.512 21.7595 101.296 21.6 101.034 21.5155C100.78 21.4217 100.522 21.3748 100.259 21.3748C100.025 21.3748 99.7855 21.4123 99.5416 21.4874C99.2976 21.5531 99.0864 21.6704 98.9081 21.8393C98.7298 21.9988 98.6219 22.2194 98.5844 22.5009C98.5093 23.0546 98.8894 23.4534 99.7245 23.6974L101.09 24.0915C101.841 24.3073 102.394 24.6217 102.751 25.0346C103.108 25.4475 103.286 25.9637 103.286 26.583C103.286 27.0991 103.178 27.5637 102.962 27.9766C102.756 28.3801 102.474 28.7273 102.118 29.0182C101.77 29.2997 101.371 29.5156 100.921 29.6657C100.471 29.8159 100.006 29.8909 99.5275 29.8909Z" fill="#3643BA"/>
<path d="M106.593 29.722C106.307 29.722 106.086 29.4684 106.127 29.1846L107.143 21.9967C107.183 21.7129 106.963 21.4592 106.676 21.4592H104.89C104.604 21.4592 104.383 21.2055 104.423 20.9217L104.515 20.274C104.548 20.0414 104.747 19.8686 104.982 19.8686H111.72C112.005 19.8686 112.225 20.1196 112.187 20.4021L112.101 21.0499C112.07 21.2842 111.87 21.4592 111.634 21.4592H109.599C109.364 21.4592 109.165 21.6321 109.132 21.8647L108.079 29.3166C108.046 29.5492 107.847 29.722 107.612 29.722H106.593Z" fill="#3643BA"/>
<path d="M116.708 29.722C116.421 29.722 116.201 29.4684 116.241 29.1846L117.501 20.274C117.534 20.0415 117.733 19.8686 117.968 19.8686H121.838C122.636 19.8686 123.278 20.0094 123.766 20.2909C124.254 20.5724 124.597 20.9525 124.794 21.4311C125 21.9003 125.057 22.4352 124.963 23.0358C124.897 23.4768 124.742 23.8851 124.498 24.2604C124.367 24.4579 124.216 24.6403 124.046 24.8077C123.824 25.0266 123.812 25.401 123.988 25.6585C124.096 25.8163 124.181 25.9884 124.245 26.1748C124.386 26.5596 124.433 26.9959 124.386 27.4839L124.238 29.289C124.218 29.5337 124.014 29.722 123.768 29.722H122.781C122.507 29.722 122.291 29.4898 122.311 29.2168L122.443 27.3713C122.462 27.0898 122.448 26.8458 122.401 26.6393C122.354 26.4329 122.26 26.2733 122.119 26.1607C121.979 26.0387 121.767 25.9777 121.486 25.9777H119.08C118.845 25.9777 118.646 26.1502 118.613 26.3825L118.194 29.3173C118.16 29.5495 117.962 29.722 117.727 29.722H116.708ZM118.96 23.8625C118.919 24.1467 119.139 24.4012 119.426 24.4012H121.078C121.66 24.4012 122.105 24.2604 122.415 23.9789C122.734 23.688 122.926 23.3032 122.992 22.8246C123.058 22.393 122.983 22.0598 122.767 21.8252C122.551 21.5906 122.152 21.4733 121.57 21.4733H119.712C119.478 21.4733 119.279 21.6455 119.246 21.8775L118.96 23.8625Z" fill="#3643BA"/>
<path d="M128.97 29.8909C128.228 29.8909 127.571 29.7408 126.999 29.4405C126.436 29.1402 126.018 28.6945 125.746 28.1033C125.474 27.5027 125.399 26.7519 125.521 25.851L126.308 20.2741C126.341 20.0416 126.54 19.8686 126.775 19.8686H127.794C128.08 19.8686 128.301 20.1218 128.261 20.4054L127.449 26.203C127.393 26.5783 127.417 26.9068 127.52 27.1883C127.623 27.4698 127.806 27.6904 128.069 27.8499C128.331 28 128.674 28.0751 129.096 28.0751C129.744 28.0751 130.279 27.8874 130.701 27.5121C131.133 27.1273 131.395 26.5783 131.489 25.8651L132.277 20.2743C132.309 20.0416 132.509 19.8686 132.744 19.8686H133.762C134.048 19.8686 134.269 20.1222 134.229 20.406L133.446 25.9496C133.324 26.8505 133.042 27.5918 132.601 28.1736C132.17 28.7555 131.635 29.1871 130.997 29.4687C130.368 29.7502 129.692 29.8909 128.97 29.8909Z" fill="#3643BA"/>
<path d="M134.605 29.722C134.318 29.722 134.098 29.4684 134.138 29.1846L135.398 20.274C135.431 20.0415 135.63 19.8686 135.865 19.8686H137.114C137.289 19.8686 137.449 19.9656 137.531 20.1205L140.24 25.2673C140.453 25.6718 141.059 25.567 141.124 25.1146L141.817 20.2732C141.85 20.0411 142.049 19.8686 142.283 19.8686H143.317C143.603 19.8686 143.823 20.1223 143.783 20.4061L142.523 29.3166C142.49 29.5492 142.291 29.722 142.056 29.722H140.793C140.618 29.722 140.458 29.6257 140.376 29.4716L137.653 24.3405C137.44 23.9376 136.835 24.0429 136.77 24.4944L136.077 29.3177C136.044 29.5497 135.845 29.722 135.61 29.722H134.605Z" fill="#3643BA"/>
<rect x="52.1717" y="24.0647" width="22.6286" height="1.88571" rx="0.942857" fill="#3643BA"/>
<rect x="63.4855" y="20.2935" width="12.2571" height="1.88571" rx="0.942857" fill="#3643BA"/>
<rect x="41.8" y="27.8362" width="32.0571" height="1.88571" rx="0.942857" fill="#3643BA"/>
<path d="M26.3725 0C14.6195 0 0 12.0747 0 22.082C0 27.2504 3.99811 29.8571 9.27863 29.8571C13.1561 29.8571 17.8482 28.449 22.3743 25.7374V5.76769C21.1674 7.82008 15.4946 16.0896 10.9382 20.494C8.61481 22.7411 6.77417 23.7149 5.19001 23.7149C3.40972 23.7149 2.56484 22.5164 2.56484 20.7338C2.56484 12.644 16.2792 2.1273 25.3616 2.1273C29.1033 2.1273 31.5172 3.77521 31.5172 6.98115C31.5172 9.91742 29.5106 13.6027 26.0858 17.0034V23.1906C32.0603 18.5015 35.6359 12.5241 35.6359 7.70023C35.6359 2.62167 31.653 0 26.3725 0Z" fill="#3643BA"/>
</svg>
