<svg width="132" height="108" viewBox="0 0 132 108" fill="none" xmlns="http://www.w3.org/2000/svg">
<path d="M16.2257 86.7967H28.0877V83.0384H20.7398V79.886H27.2477V76.3873H20.7398V73.2349H28.0877V69.489H16.2257V86.7967ZM42.8088 79.342C41.0908 82.0371 39.4231 83.1621 37.2789 83.1621C34.4953 83.1621 32.8777 81.2335 32.8777 77.8832C32.8777 74.706 34.3699 73.1236 36.6646 73.1236C38.1818 73.1236 39.4357 73.7912 39.8245 76.0164H44.3386C43.8495 71.7761 41.1035 69.1428 36.7147 69.1428C31.6238 69.1428 28.2758 72.6909 28.2758 78.1305C28.2758 83.6071 31.6238 87.1428 37.1285 87.1428C40.7273 87.1428 43.1724 85.6593 44.7899 83.6566H50.9466V86.7967H55.4358V69.489H49.0658L42.8088 79.342ZM50.9466 80.1827H46.9717L50.9466 73.8159V80.1827ZM6.5956 69.489H0V86.7967H6.5956C11.8245 86.7967 15.1975 83.3969 15.1975 78.1428C15.1975 72.8887 11.8245 69.489 6.5956 69.489ZM6.5329 83.0384H4.5141V73.2349H6.5329C9.14105 73.2349 10.6081 75.0522 10.6081 78.1428C10.6081 81.2211 9.14105 83.0384 6.5329 83.0384ZM107.248 69.1428C101.944 69.1428 98.3825 72.6909 98.3825 78.1428C98.3825 83.5947 101.944 87.1428 107.248 87.1428C112.564 87.1428 116.113 83.5947 116.113 78.1428C116.113 72.6909 112.564 69.1428 107.248 69.1428ZM107.248 83.1621C104.64 83.1621 102.997 81.4436 102.997 78.1428C102.997 74.842 104.64 73.1236 107.248 73.1236C109.868 73.1236 111.498 74.842 111.498 78.1428C111.498 81.4436 109.868 83.1621 107.248 83.1621ZM56.5644 73.2349H60.9907V86.7967H65.5048V73.2349H69.9311V69.489H56.5644V73.2349ZM127.636 69.489V79.0206L121.818 69.489H117.141V86.7967H121.505V76.8695L127.561 86.7967H132V69.489H127.636ZM91.9875 69.489H87.4734V86.7967H98.7963V83.0508H91.9875V69.489ZM81.6552 76.0906H75.5737V69.489H71.0596V86.7967H75.5737V79.8241H81.6552V86.7967H86.1693V69.489H81.6552V76.0906Z" fill="white"/>
<path d="M83.3714 0C58.9655 0 28.6074 25.0737 28.6074 45.8545C28.6074 56.587 36.9097 62 47.875 62C55.9267 62 65.6702 59.0758 75.0689 53.4451V11.9769C72.5626 16.2388 60.7828 33.4109 51.3212 42.557C46.4965 47.2232 42.6744 49.2453 39.3848 49.2453C35.6879 49.2453 33.9334 46.7566 33.9334 43.0548C33.9334 26.2559 62.412 4.41746 81.2723 4.41746C89.042 4.41746 94.0545 7.83943 94.0545 14.4968C94.0545 20.5941 89.8878 28.2468 82.776 35.3086V48.1565C95.1825 38.4194 102.607 26.007 102.607 15.99C102.607 5.44404 94.3366 0 83.3714 0Z" fill="white"/>
<rect x="15" y="100" width="35" height="2" rx="1" fill="white"/>
<rect x="33" y="95" width="18" height="2" rx="1" fill="white"/>
<rect y="105" width="49" height="2" rx="1" fill="white"/>
<path d="M51.9477 107C51.5829 107 51.3025 106.677 51.3536 106.316L52.9983 94.6868C53.0401 94.3909 53.2934 94.1709 53.5923 94.1709H58.6427C59.6813 94.1709 60.5182 94.3541 61.1536 94.7207C61.7889 95.0872 62.2349 95.5821 62.4915 96.2052C62.7603 96.8161 62.8336 97.5125 62.7114 98.2945C62.6259 98.8687 62.4243 99.4002 62.1066 99.889C61.9319 100.151 61.7312 100.393 61.5048 100.614C61.221 100.892 61.2058 101.368 61.4317 101.694C61.5768 101.904 61.6918 102.133 61.7767 102.381C61.96 102.882 62.0211 103.451 61.96 104.086L61.7668 106.449C61.7413 106.76 61.4812 107 61.1688 107H59.8555C59.5072 107 59.2321 106.704 59.2571 106.357L59.4308 103.939C59.4552 103.573 59.4369 103.255 59.3758 102.986C59.3147 102.717 59.1925 102.51 59.0093 102.363C58.826 102.204 58.5511 102.125 58.1845 102.125H55.0395C54.7409 102.125 54.4877 102.344 54.4455 102.64L53.8962 106.485C53.854 106.78 53.6009 107 53.3023 107H51.9477ZM54.8929 99.3866C54.8407 99.7483 55.1213 100.072 55.4867 100.072H57.6531C58.4106 100.072 58.9909 99.889 59.3941 99.5224C59.8096 99.1437 60.06 98.6427 60.1456 98.0196C60.2311 97.4575 60.1333 97.0238 59.8523 96.7183C59.5713 96.4129 59.052 96.2602 58.2945 96.2602H55.8635C55.5652 96.2602 55.3122 96.4793 55.2696 96.7745L54.8929 99.3866Z" fill="white"/>
<path d="M72.1238 107.22C71.0975 107.22 70.1933 107.043 69.4113 106.688C68.6416 106.334 68.0001 105.845 67.487 105.222C66.986 104.599 66.6317 103.872 66.424 103.041C66.2285 102.198 66.198 101.294 66.3324 100.329C66.5156 99.0826 66.9372 97.9829 67.5969 97.0299C68.2567 96.0647 69.0876 95.3133 70.0895 94.7757C71.0913 94.2258 72.191 93.9509 73.3884 93.9509C74.4147 93.9509 75.3188 94.1281 76.1008 94.4824C76.8828 94.8245 77.5242 95.3071 78.0252 95.9303C78.5383 96.5534 78.8927 97.2865 79.0881 98.1295C79.2959 98.9604 79.3325 99.8645 79.1981 100.842C79.0637 101.771 78.7888 102.626 78.3734 103.408C77.958 104.19 77.4326 104.868 76.7972 105.442C76.1741 106.004 75.4655 106.444 74.6713 106.762C73.8771 107.067 73.0279 107.22 72.1238 107.22ZM72.2154 104.911C72.9485 104.911 73.6205 104.733 74.2314 104.379C74.8545 104.025 75.3738 103.524 75.7892 102.876C76.2169 102.229 76.4918 101.459 76.614 100.567C76.7361 99.7118 76.6873 98.9665 76.4673 98.3311C76.2474 97.6836 75.8687 97.1765 75.3311 96.81C74.7935 96.4434 74.1153 96.2602 73.2967 96.2602C72.5636 96.2602 71.8855 96.4373 71.2624 96.7917C70.6393 97.146 70.12 97.6469 69.7046 98.2945C69.2892 98.9298 69.0143 99.6935 68.8799 100.585C68.7577 101.428 68.8065 102.18 69.0265 102.84C69.2464 103.487 69.6252 103.994 70.1628 104.361C70.7126 104.727 71.3968 104.911 72.2154 104.911Z" fill="white"/>
<path d="M89.0482 107.22C88.0219 107.22 87.1177 107.043 86.3358 106.688C85.566 106.334 84.9246 105.845 84.4114 105.222C83.9105 104.599 83.5561 103.872 83.3484 103.041C83.1529 102.198 83.1224 101.294 83.2568 100.329C83.4401 99.0826 83.8616 97.9829 84.5214 97.0299C85.1812 96.0647 86.012 95.3133 87.0139 94.7757C88.0158 94.2258 89.1154 93.9509 90.3128 93.9509C91.3391 93.9509 92.2433 94.1281 93.0252 94.4824C93.8072 94.8245 94.4487 95.3071 94.9496 95.9303C95.4628 96.5534 95.8171 97.2865 96.0126 98.1295C96.2203 98.9604 96.2569 99.8645 96.1225 100.842C95.9881 101.771 95.7132 102.626 95.2978 103.408C94.8824 104.19 94.357 104.868 93.7217 105.442C93.0985 106.004 92.3899 106.444 91.5957 106.762C90.8015 107.067 89.9524 107.22 89.0482 107.22ZM89.1399 104.911C89.8729 104.911 90.5449 104.733 91.1558 104.379C91.779 104.025 92.2983 103.524 92.7137 102.876C93.1413 102.229 93.4162 101.459 93.5384 100.567C93.6606 99.7118 93.6117 98.9665 93.3918 98.3311C93.1718 97.6836 92.7931 97.1765 92.2555 96.81C91.7179 96.4434 91.0398 96.2602 90.2212 96.2602C89.4881 96.2602 88.81 96.4373 88.1868 96.7917C87.5637 97.146 87.0444 97.6469 86.629 98.2945C86.2136 98.9298 85.9387 99.6935 85.8043 100.585C85.6821 101.428 85.731 102.18 85.9509 102.84C86.1708 103.487 86.5496 103.994 87.0872 104.361C87.637 104.727 88.3212 104.911 89.1399 104.911Z" fill="white"/>
<path d="M100.304 107C99.9391 107 99.6587 106.677 99.7098 106.316L101.355 94.6868C101.396 94.3909 101.65 94.1709 101.949 94.1709H103.299C103.665 94.1709 103.946 94.4957 103.893 94.8578L103.511 97.4644C103.428 98.0275 104.103 98.3783 104.516 97.9875L108.383 94.3347C108.495 94.2295 108.642 94.1709 108.795 94.1709H110.223C110.767 94.1709 111.03 94.8381 110.632 95.2096L106.626 98.9461C106.434 99.1254 106.38 99.4088 106.494 99.6455L109.626 106.139C109.818 106.538 109.528 107 109.086 107H107.325C107.092 107 106.881 106.866 106.782 106.655L104.579 101.967C104.407 101.6 103.928 101.506 103.63 101.781L102.995 102.366C102.894 102.459 102.828 102.584 102.808 102.72L102.254 106.487C102.211 106.782 101.958 107 101.661 107H100.304Z" fill="white"/>
<path d="M114.866 107C114.501 107 114.221 106.677 114.272 106.316L115.917 94.6868C115.959 94.3909 116.212 94.1709 116.511 94.1709H117.847C118.211 94.1709 118.492 94.4937 118.441 94.8549L116.796 106.484C116.754 106.78 116.501 107 116.202 107H114.866Z" fill="white"/>
<path d="M122.143 107C121.779 107 121.498 106.677 121.549 106.316L123.194 94.6868C123.236 94.3909 123.489 94.1709 123.788 94.1709H131.043C131.408 94.1709 131.688 94.4937 131.637 94.855L131.514 95.726C131.472 96.0219 131.219 96.2418 130.92 96.2418H126.061C125.762 96.2418 125.508 96.4619 125.467 96.7579L125.178 98.8019C125.127 99.163 125.407 99.4858 125.772 99.4858H129.745C130.109 99.4858 130.389 99.8071 130.339 100.168L130.229 100.965C130.188 101.262 129.935 101.483 129.635 101.483H125.311C125.011 101.483 124.758 101.705 124.717 102.002L124.405 104.266C124.356 104.626 124.636 104.947 125 104.947H129.54C129.905 104.947 130.185 105.271 130.134 105.632L130.012 106.485C129.969 106.78 129.716 107 129.418 107H122.143Z" fill="white"/>
</svg>
